<?xml version="1.0" standalone="no"?>
<!DOCTYPE svg PUBLIC "-//W3C//DTD SVG 20010904//EN"
 "http://www.w3.org/TR/2001/REC-SVG-20010904/DTD/svg10.dtd">
<svg version="1.0" xmlns="http://www.w3.org/2000/svg"
 width="2896.000000pt" height="1389.000000pt" viewBox="0 0 2896.000000 1389.000000"
 preserveAspectRatio="xMidYMid meet">

<g transform="translate(0.000000,1389.000000) scale(0.100000,-0.100000)"
fill="#000000" stroke="none">
<path d="M2740 13873 c-286 -45 -545 -205 -699 -431 -396 -584 -114 -1367 564
-1568 83 -24 110 -27 360 -34 149 -5 462 -9 697 -9 402 -1 430 -2 481 -21 74
-28 130 -79 166 -152 77 -154 11 -338 -148 -412 -46 -21 -51 -21 -1148 -24
l-1103 -2 0 -370 0 -371 1208 4 c1205 3 1207 3 1282 24 317 92 539 278 676
567 69 146 88 241 88 431 1 144 -2 170 -27 258 -94 340 -348 608 -672 710
-149 47 -177 49 -880 56 -652 6 -671 7 -716 27 -67 31 -114 78 -149 146 -76
154 -9 338 149 412 46 21 51 21 1149 24 l1102 2 0 370 0 370 -1177 -1 c-648
-1 -1189 -3 -1203 -6z"/>
<path d="M5630 13211 l0 -669 1066 -1023 c587 -563 1073 -1027 1080 -1032 7
-4 253 -6 547 -5 l535 3 -829 845 c-455 465 -827 848 -826 852 2 6 320 332
1446 1480 l213 218 -535 0 -536 0 -678 -639 -678 -640 -3 640 -2 639 -400 0
-400 0 0 -669z"/>
<path d="M9253 13478 c4 -357 7 -414 25 -499 64 -301 195 -542 412 -760 177
-178 363 -292 595 -364 215 -67 211 -67 948 -72 l667 -5 0 -66 c0 -88 -22
-187 -55 -253 -54 -106 -177 -201 -296 -228 -28 -7 -448 -11 -1171 -11 l-1128
0 0 -370 0 -371 1258 3 1257 3 97 27 c192 53 366 154 503 292 183 185 289 408
315 666 5 52 16 543 25 1090 8 547 17 1068 21 1158 l5 162 -410 0 -411 0 -2
-657 -3 -658 -580 -3 c-499 -2 -591 0 -659 13 -157 32 -282 102 -398 224 -84
87 -133 168 -175 286 l-28 80 -3 358 -3 357 -406 0 -405 0 5 -402z"/>
<path d="M13230 12180 l0 -1700 390 0 390 0 0 1330 c0 1260 1 1330 18 1331
236 7 1456 14 1490 8 171 -33 310 -175 343 -351 22 -121 -19 -254 -108 -349
-59 -63 -103 -92 -182 -119 -58 -19 -84 -20 -606 -20 l-545 0 0 -385 0 -385
383 0 382 0 289 -516 c159 -283 294 -522 300 -530 9 -12 75 -14 447 -12 l435
3 -292 555 c-250 475 -290 556 -277 565 309 194 477 395 572 683 145 436 32
913 -293 1238 -181 181 -401 295 -653 339 -73 13 -267 15 -1284 15 l-1199 0 0
-1700z"/>
<path d="M24966 13864 c-595 -118 -958 -711 -791 -1289 43 -149 96 -247 203
-378 141 -173 383 -310 613 -347 47 -7 313 -14 739 -18 l665 -7 50 -27 c109
-58 169 -155 169 -273 0 -118 -60 -215 -169 -273 l-50 -27 -1107 -3 -1108 -2
0 -370 0 -370 1169 0 c1292 0 1258 -1 1432 64 126 47 239 118 339 213 187 177
296 397 319 646 45 469 -224 893 -672 1062 -144 54 -189 57 -912 64 l-670 6
-50 27 c-60 32 -114 87 -146 148 -19 36 -24 61 -24 125 0 64 5 89 24 125 32
61 86 116 146 148 l50 27 1108 3 1107 2 0 370 0 370 -1182 -1 c-957 -1 -1196
-3 -1252 -15z"/>
<path d="M18575 13854 c-639 -99 -1165 -550 -1359 -1162 -59 -188 -70 -269
-70 -512 0 -252 12 -336 80 -539 190 -572 675 -998 1274 -1121 120 -25 378
-39 744 -39 l229 -1 -6 263 c-4 144 -7 301 -7 349 l0 86 -347 5 c-397 4 -439
11 -609 91 -114 54 -167 90 -255 174 -95 89 -153 169 -210 287 -181 379 -107
809 190 1105 94 94 197 163 315 211 172 71 181 72 767 76 l526 5 6 -684 c4
-376 7 -908 7 -1183 0 -275 3 -564 7 -642 l6 -143 379 0 378 0 0 1695 0 1695
-977 -1 c-783 -1 -996 -4 -1068 -15z"/>
<path d="M21142 13518 l3 -353 443 -3 442 -2 0 -678 1 -677 414 420 414 420 1
258 0 257 460 0 460 0 0 355 0 355 -1320 0 -1320 0 2 -352z"/>
<path d="M22441 11698 l-411 -423 0 -397 0 -398 415 0 415 0 0 820 c0 451 -2
820 -4 820 -2 0 -189 -190 -415 -422z"/>
<path d="M5630 11205 l0 -725 395 0 395 0 -2 362 -3 362 -385 363 c-212 199
-388 363 -392 363 -5 0 -8 -326 -8 -725z"/>
<path d="M11 10120 l0 -1575 1167 -1173 1167 -1172 1518 2 1518 3 -2651 2710
c-1459 1491 -2667 2726 -2686 2745 l-34 35 1 -1575z"/>
<path d="M26261 8937 l-2683 -2742 1518 -3 1519 -2 1131 1137 c621 626 1147
1157 1167 1179 l37 41 -2 1566 -3 1566 -2684 -2742z"/>
<path d="M2822 9291 c2 -5 694 -702 1539 -1550 l1536 -1541 2878 2 2879 3
-1463 1548 -1462 1547 -2955 0 c-1675 0 -2954 -4 -2952 -9z"/>
<path d="M9247 9188 c61 -62 1257 -1274 2658 -2693 1401 -1419 2550 -2581
2555 -2583 4 -1 1212 1207 2684 2685 l2676 2688 -1506 3 c-828 1 -1512 -1
-1519 -5 -7 -5 -533 -524 -1168 -1155 -636 -632 -1159 -1148 -1164 -1148 -4 0
-298 294 -653 653 -354 358 -871 880 -1147 1160 l-503 507 -1512 0 -1513 0
112 -112z"/>
<path d="M19373 8383 c-472 -500 -1129 -1195 -1460 -1545 -332 -351 -603 -640
-603 -643 0 -3 1294 -5 2875 -5 l2875 0 1538 1541 c845 847 1539 1545 1540
1550 2 5 -1188 9 -2952 9 l-2955 0 -858 -907z"/>
<path d="M10 6467 l0 -1542 1193 -1213 1192 -1213 5 1539 5 1538 1493 -1528
1493 -1528 1785 0 c982 0 1784 4 1782 8 -1 5 -680 700 -1508 1545 l-1505 1536
-1782 0 -1782 1 -1181 1200 c-650 660 -1184 1200 -1186 1200 -2 0 -4 -694 -4
-1543z"/>
<path d="M27760 6800 l-1182 -1200 -1777 -1 -1776 0 -1505 -1536 c-828 -845
-1506 -1540 -1508 -1545 -2 -4 800 -8 1782 -8 l1785 0 1488 1523 1488 1522 3
-1528 c1 -989 6 -1527 12 -1525 5 2 543 545 1195 1208 l1185 1205 0 1543 c0
848 -2 1542 -4 1542 -3 0 -536 -540 -1186 -1200z"/>
<path d="M6616 5538 c50 -51 665 -689 1369 -1416 l1278 -1324 116 115 c64 62
652 640 1306 1282 655 642 1251 1228 1325 1301 l135 134 -2809 0 -2810 0 90
-92z"/>
<path d="M16925 5511 c61 -59 646 -634 1300 -1276 655 -642 1253 -1231 1331
-1307 l141 -139 1264 1308 c695 719 1311 1356 1368 1416 l104 107 -2809 0
-2809 0 110 -109z"/>
<path d="M12111 4020 l0 -1565 1172 -1227 c645 -674 1175 -1225 1179 -1225 4
1 543 553 1198 1227 l1190 1225 0 1565 0 1565 -237 -236 c-364 -360 -2009
-1984 -2085 -2058 l-67 -65 -1175 1180 -1175 1179 0 -1565z"/>
</g>
</svg>
